<svg width="130" height="32" viewBox="0 0 130 32" fill="none" xmlns="http://www.w3.org/2000/svg">
<path d="M0 0.260633V31.7424H24.5538V28.0387H3.94875V23.3061C5.551 24.4127 7.52862 25.0681 9.6655 25.0681H17.2152V14.1535H9.58588V17.8572H13.2665V21.3643H9.6655C6.513 21.3643 3.94875 18.9577 3.94875 16.0008C3.94875 13.0439 6.513 10.6387 9.6655 10.6387H13.2064V6.93498H9.6655C7.527 6.93498 5.551 7.59038 3.94875 8.69693V3.96437H29.6156V14.1489H24.5538V6.93498H16.926V10.6387H20.6066V25.0681H24.5554V17.8542H29.6172V31.7424H33.566V0.260633H0Z" fill="#D29F66"/>
<path d="M55.2711 31.7394H52.1788V27.0388H46.527V31.7394H43.4346V19.738H46.527V24.7587H52.1788V19.738H55.2711V31.7394ZM58.3245 25.7387C58.3245 22.2986 60.905 19.4789 65.1479 19.4789C69.3907 19.4789 72.0135 22.2986 72.0135 25.7387C72.0135 29.1788 69.433 32 65.1479 32C60.8627 32 58.3245 29.1803 58.3245 25.7387ZM68.8155 25.7387C68.8155 23.6582 67.2165 22.2788 65.1479 22.2788C63.0792 22.2788 61.5225 23.6582 61.5225 25.7387C61.5225 27.8192 63.1215 29.1986 65.1479 29.1986C67.1742 29.1986 68.8155 27.8192 68.8155 25.7387ZM75.1709 26.5587V19.738H78.2633V26.5587C78.2633 27.9381 79.1797 29.1986 81.0566 29.1986C82.9335 29.1986 83.8289 27.9594 83.8289 26.5587V19.738H86.9213V26.5587C86.9213 29.6589 84.7242 32 81.0566 32C77.389 32 75.1709 29.6604 75.1709 26.5587ZM92.1261 28.1789C92.1261 28.1789 93.9819 29.3388 95.8571 29.3388C97.0304 29.3388 97.4561 28.8785 97.4561 28.3389C97.4561 27.7186 97.0093 27.3985 95.0674 26.8986C92.2529 26.1594 90.6539 25.1778 90.6539 23.1979C90.6539 21.0183 92.3179 19.4774 95.7921 19.4774C99.2664 19.4774 100.783 20.7577 100.783 20.7577L99.1185 23.1171C99.1185 23.1171 97.7324 22.1173 95.7921 22.1173C94.5766 22.1173 94.2143 22.4968 94.2143 22.9967C94.2143 23.5972 94.8106 23.8365 96.4324 24.2374C99.4386 24.9766 101.082 26.0176 101.082 28.0173C101.082 30.1969 99.4614 31.9985 95.9416 31.9985C92.4219 31.9985 90.4394 30.3981 90.4394 30.3981L92.1245 28.1774L92.1261 28.1789ZM113.152 26.8788H107.521V29.2397H114.601V31.7394H104.429V19.738H114.601V22.2377H107.521V24.5971H113.152V26.8788ZM58.3245 6.25978C58.3245 2.81972 60.905 0 65.1479 0C69.3907 0 72.0135 2.81972 72.0135 6.25978C72.0135 9.69983 69.433 12.5196 65.1479 12.5196C60.8627 12.5196 58.3245 9.69983 58.3245 6.25978ZM68.8155 6.25978C68.8155 4.17928 67.2165 2.7999 65.1479 2.7999C63.0792 2.7999 61.5225 4.1808 61.5225 6.25978C61.5225 8.33875 63.1215 9.71965 65.1479 9.71965C67.1742 9.71965 68.8155 8.34027 68.8155 6.25978ZM75.1709 12.2604V0.259109H78.2633V9.75928H85.1857V12.2589L75.1709 12.2604ZM94.6075 12.2604H89.297V0.259109H94.6075C98.8731 0.259109 101.389 2.81972 101.389 6.25978C101.389 9.69983 98.8731 12.2604 94.6075 12.2604ZM92.3894 2.76028V9.7608H94.3719C96.59 9.7608 98.189 8.58109 98.189 6.2613C98.189 3.94151 96.59 2.76028 94.3719 2.76028H92.3894ZM113.152 7.39986H107.521V9.75928H114.601V12.2589H104.429V0.259109H114.601V2.75875H107.521V5.11817H113.152V7.39986ZM130 12.2604H129.296L121.022 5.63944V12.2604H117.951V0.259109H118.654L126.929 6.61948V0.280448H130V12.2604ZM50.2092 2.76028H55.2841V0.259109H49.9736C45.708 0.259109 43.1925 2.81972 43.1925 6.25978C43.1925 9.69983 45.708 12.2604 49.9736 12.2604H55.2841V5.1197H49.7185V7.39986H52.1917V9.75928H50.2092C47.9911 9.75928 46.3921 8.57957 46.3921 6.25978C46.3921 3.93999 47.9911 2.76028 50.2092 2.76028Z" fill="white"/>
</svg>
