<svg width="146" height="32" viewBox="0 0 146 32" fill="none" xmlns="http://www.w3.org/2000/svg">
<path d="M11.0803 14.6793C6.53673 14.6709 3.51978 12.3196 3.52431 9.02185C3.52884 5.72413 6.55485 3.37695 11.0984 3.38528C15.6419 3.39362 18.6589 5.74497 18.6543 9.04269C18.6498 12.3404 15.6238 14.6876 11.0803 14.6793ZM11.1029 1.38691e-05C4.44389 -0.00832424 0.00454383 3.74383 1.38837e-05 9.01768C-0.00904601 14.2915 4.41672 18.0562 11.0757 18.0645C17.7348 18.0729 22.1741 14.3249 22.1786 9.04687C22.1877 3.77301 17.7619 0.00835198 11.1029 1.38691e-05Z" fill="white"/>
<path d="M26.618 4.92762L24.4255 6.92876L22.2375 4.92345L24.43 2.92648L26.618 4.92762Z" fill="white"/>
<path d="M11.0803 14.6834C6.53673 14.6751 3.51978 12.3237 3.52431 9.02601C3.52884 5.72829 6.55485 3.38112 11.0984 3.38946C15.6419 3.3978 18.6589 5.74915 18.6543 9.04687C18.6498 12.3446 15.6238 14.6918 11.0803 14.6834ZM11.1029 1.38691e-05C4.44389 -0.00832424 0.00454383 3.74383 1.38837e-05 9.01768C-0.00904601 14.2915 4.41672 18.0562 11.0757 18.0645C17.7348 18.0729 22.1741 14.3249 22.1786 9.04687C22.1877 3.77301 17.7619 0.00835198 11.1029 1.38691e-05Z" fill="white"/>
<path d="M26.618 4.92762L24.4255 6.92876L22.2375 4.92345L24.43 2.92648L26.618 4.92762Z" fill="white"/>
<path d="M27.2975 6.52459V3.43116L44.6336 3.452C44.6336 3.452 44.6336 5.59073 44.629 6.63716C44.629 8.22974 42.6993 9.66389 40.3482 10.5936C38.0017 11.5275 33.7255 13.391 33.3042 13.662C32.8829 13.9372 31.3744 14.7585 31.1978 15.0878C33.0641 15.0878 44.62 15.1045 44.62 15.1045V18.0729L27.2794 18.052C27.2794 18.052 27.2794 16.2385 27.2839 14.7001C27.2839 13.1617 29.5171 11.7484 30.8988 11.0355C32.2849 10.3226 40.0402 7.33756 40.9417 6.84144C41.8431 6.34949 42.8261 5.59489 42.9439 5.26136L42.7038 5.0821C41.7842 5.8367 39.8726 6.53709 38.9712 6.53709C38.0697 6.53709 27.2975 6.52043 27.2975 6.52043" fill="white"/>
<path d="M27.2975 6.52459V3.43116L44.6336 3.452C44.6336 3.452 44.6336 5.59073 44.629 6.63716C44.629 8.22974 42.6993 9.66389 40.3482 10.5936C38.0017 11.5275 33.7255 13.391 33.3042 13.662C32.8829 13.9372 31.3744 14.7585 31.1978 15.0878C33.0641 15.0878 44.62 15.1045 44.62 15.1045V18.0729L27.2794 18.052C27.2794 18.052 27.2794 16.2385 27.2839 14.7001C27.2839 13.1617 29.5171 11.7484 30.8988 11.0355C32.2849 10.3226 40.0402 7.33756 40.9417 6.84144C41.8431 6.34949 42.8261 5.59489 42.9439 5.26136L42.7038 5.0821C41.7842 5.8367 39.8726 6.53709 38.9712 6.53709C38.0697 6.53709 27.2975 6.52043 27.2975 6.52043" fill="white"/>
<path d="M49.0275 3.44045H54.1614L59.2736 13.9244L64.5168 3.44045H69.6071V18.0776H65.7839V8.29935L60.8684 18.0776H57.5695L52.8506 8.13806V18.0776H49.0275V3.44045Z" fill="white"/>
<path d="M70.9292 18.0776L78.4445 3.44045H82.2458L89.4771 18.0776H85.064L83.6222 14.9728H76.6312L75.2112 18.0776H70.9292ZM77.9857 12.009H82.1803L80.0611 7.49289L77.9857 12.009Z" fill="white"/>
<path d="M94.777 3.44045V9.06548L101.462 3.44045H106.574L99.5833 9.12596L107.426 18.0776H102.554L96.7869 11.3639L94.777 13.0171V18.0776H90.8009V3.44045H94.777Z" fill="white"/>
<path d="M117.181 3.05739C123.014 3.05739 126.663 6.12192 126.663 10.759C126.663 15.3962 123.014 18.4607 117.181 18.4607C111.348 18.4607 107.678 15.3962 107.678 10.759C107.678 6.12192 111.348 3.05739 117.181 3.05739ZM117.181 6.06143C114.014 6.06143 112.047 7.83564 112.047 10.759C112.047 13.6824 114.014 15.4566 117.181 15.4566C120.349 15.4566 122.294 13.6824 122.294 10.759C122.294 7.81547 120.349 6.06143 117.181 6.06143Z" fill="white"/>
<path d="M129.353 3.44045H134.246L142.177 13.7631V3.44045H146V18.0776H141.172L133.176 7.65418V18.0776H129.353V3.44045Z" fill="white"/>
<path d="M38.5851 31.7973V21.9869H44.53C46.6343 21.9869 47.782 22.9058 47.782 24.4598C47.782 25.5003 47.2082 26.2165 46.0898 26.6219C47.4289 26.8651 48.1499 27.6624 48.1499 28.9326C48.1499 30.8919 46.9286 31.7973 44.3828 31.7973H38.5851ZM40.1007 23.2707V26.1084H43.8972C45.5159 26.1084 46.2664 25.7841 46.2664 24.676C46.2664 23.6625 45.6189 23.2707 44.221 23.2707H40.1007ZM40.1007 27.3921V30.5136H44.0297C45.7366 30.5136 46.5754 30.1217 46.5754 29.0407C46.5754 27.8651 45.8396 27.3921 44.2504 27.3921H40.1007Z" fill="white"/>
<path d="M49.9194 24.5274H51.3468V28.7569C51.3468 30.2298 51.8177 30.8919 53.245 30.8919C54.9226 30.8919 56.1734 29.8514 56.1734 28.2299V24.5274H57.6007V31.7973H56.1734V30.5676C55.3052 31.5406 54.2604 32 52.9213 32C51.0083 32 49.9194 31.1757 49.9194 29.1353V24.5274Z" fill="white"/>
<path d="M66.7391 26.7165H65.3559C65.2528 25.8111 64.4877 25.4057 63.0603 25.4057C61.7212 25.4057 61.0002 25.757 61.0002 26.3786C61.0002 27.0813 61.5888 27.2164 62.7954 27.4056L64.5024 27.6624C66.2682 27.9326 66.9892 28.4191 66.9892 29.7298C66.9892 31.2027 65.6796 32 63.0897 32C60.6323 32 59.3815 31.2163 59.2049 29.4325H60.7647C60.8972 30.3649 61.7212 30.8919 63.0897 30.8919C64.7084 30.8919 65.5619 30.4595 65.5619 29.7974C65.5619 29.2299 65.1204 29.0407 64.1198 28.892L62.354 28.6083C60.4999 28.3245 59.5728 27.9461 59.5728 26.6084C59.5728 25.1084 60.7794 24.2976 63.1339 24.2976C65.503 24.2976 66.7391 25.149 66.7391 26.7165Z" fill="white"/>
<path d="M70.1315 24.5274V31.7973H68.7041V24.5274H70.1315ZM70.1315 23.5815H68.7041V21.9869H70.1315V23.5815Z" fill="white"/>
<path d="M73.7932 24.5274V25.7841C74.5289 24.8922 75.6326 24.2976 77.0452 24.2976C79.4438 24.2976 80.0471 25.5679 80.0471 27.4732V31.7973H78.6197V27.5813C78.6197 26.1084 78.1488 25.4057 76.7215 25.4057C75.044 25.4057 73.7932 26.4867 73.7932 28.1083V31.7973H72.3658V24.5274H73.7932Z" fill="white"/>
<path d="M90.3038 28.4326H83.167C83.167 29.8515 84.3 30.7838 85.9923 30.7838C87.2431 30.7838 88.1848 30.3379 88.5086 29.5407H90.1714C89.6122 31.1081 88.0965 32 85.9923 32C83.3288 32 81.6513 30.5136 81.6513 28.1758C81.6513 25.8246 83.3435 24.2976 85.9923 24.2976C88.6999 24.2976 90.3038 25.757 90.3038 28.1758V28.4326ZM83.1964 27.5002H88.7734C88.5527 26.2705 87.5226 25.5138 85.9923 25.5138C84.4766 25.5138 83.4318 26.257 83.1964 27.5002Z" fill="white"/>
<path d="M98.9285 26.7165H97.5453C97.4423 25.8111 96.6771 25.4057 95.2497 25.4057C93.9106 25.4057 93.1896 25.757 93.1896 26.3786C93.1896 27.0813 93.7782 27.2164 94.9848 27.4056L96.6918 27.6624C98.4576 27.9326 99.1787 28.4191 99.1787 29.7298C99.1787 31.2027 97.869 32 95.2791 32C92.8217 32 91.5709 31.2163 91.3943 29.4325H92.9541C93.0866 30.3649 93.9106 30.8919 95.2791 30.8919C96.8978 30.8919 97.7513 30.4595 97.7513 29.7974C97.7513 29.2299 97.3098 29.0407 96.3092 28.892L94.5434 28.6083C92.6893 28.3245 91.7622 27.9461 91.7622 26.6084C91.7622 25.1084 92.9689 24.2976 95.3233 24.2976C97.6924 24.2976 98.9285 25.149 98.9285 26.7165Z" fill="white"/>
<path d="M107.795 26.7165H106.412C106.309 25.8111 105.544 25.4057 104.116 25.4057C102.777 25.4057 102.056 25.757 102.056 26.3786C102.056 27.0813 102.645 27.2164 103.851 27.4056L105.558 27.6624C107.324 27.9326 108.045 28.4191 108.045 29.7298C108.045 31.2027 106.735 32 104.146 32C101.688 32 100.437 31.2163 100.261 29.4325H101.821C101.953 30.3649 102.777 30.8919 104.146 30.8919C105.764 30.8919 106.618 30.4595 106.618 29.7974C106.618 29.2299 106.176 29.0407 105.176 28.892L103.41 28.6083C101.556 28.3245 100.629 27.9461 100.629 26.6084C100.629 25.1084 101.835 24.2976 104.19 24.2976C106.559 24.2976 107.795 25.149 107.795 26.7165Z" fill="white"/>
</svg>
