<svg width="12" height="11" viewBox="0 0 12 11" fill="none" xmlns="http://www.w3.org/2000/svg">
<path d="M11.1171 3.92391L10.3191 1.52991C10.2033 1.18136 9.98066 0.878155 9.68273 0.663376C9.38481 0.448597 9.02677 0.33317 8.6595 0.333497H3.34066C2.97339 0.33317 2.61536 0.448597 2.31743 0.663376C2.01951 0.878155 1.79684 1.18136 1.68108 1.52991L0.883081 3.92391C0.670878 4.01271 0.489658 4.16225 0.362204 4.35374C0.234749 4.54523 0.166748 4.77013 0.166748 5.00016V7.91683C0.166748 8.34733 0.402415 8.7195 0.750081 8.92191V10.2502C0.750081 10.4049 0.81154 10.5532 0.920936 10.6626C1.03033 10.772 1.17871 10.8335 1.33341 10.8335H1.91675C2.07146 10.8335 2.21983 10.772 2.32923 10.6626C2.43862 10.5532 2.50008 10.4049 2.50008 10.2502V9.0835H9.50008V10.2502C9.50008 10.4049 9.56154 10.5532 9.67094 10.6626C9.78033 10.772 9.92871 10.8335 10.0834 10.8335H10.6667C10.8215 10.8335 10.9698 10.772 11.0792 10.6626C11.1886 10.5532 11.2501 10.4049 11.2501 10.2502V8.92191C11.4271 8.82042 11.5742 8.67407 11.6766 8.49762C11.779 8.32117 11.8331 8.12085 11.8334 7.91683V5.00016C11.8334 4.77013 11.7654 4.54523 11.638 4.35374C11.5105 4.16225 11.3293 4.01271 11.1171 3.92391ZM3.34066 1.50016H8.65892C8.91033 1.50016 9.13317 1.66 9.2125 1.89916L9.85767 3.8335H2.1425L2.78708 1.89916C2.82579 1.78296 2.90008 1.68189 2.99944 1.61027C3.0988 1.53866 3.21819 1.50013 3.34066 1.50016ZM2.20841 7.3335C2.09347 7.33346 1.97966 7.31078 1.87348 7.26676C1.7673 7.22273 1.67083 7.15823 1.58958 7.07692C1.50832 6.99562 1.44388 6.89911 1.39993 6.7929C1.35598 6.68669 1.33338 6.57286 1.33341 6.45791C1.33345 6.34297 1.35613 6.22916 1.40015 6.12298C1.44418 6.0168 1.50868 5.92033 1.58999 5.83907C1.67129 5.75782 1.76781 5.69338 1.87402 5.64943C1.98023 5.60548 2.09405 5.58288 2.209 5.58291C2.44114 5.58299 2.66374 5.67528 2.82784 5.83949C2.99193 6.00369 3.08408 6.22636 3.084 6.4585C3.08392 6.69064 2.99163 6.91324 2.82743 7.07734C2.66322 7.24143 2.44056 7.33357 2.20841 7.3335ZM9.79175 7.3335C9.6768 7.33346 9.56299 7.31078 9.45681 7.26676C9.35063 7.22273 9.25416 7.15823 9.17291 7.07692C9.09166 6.99562 9.02722 6.89911 8.98326 6.7929C8.93931 6.68669 8.91671 6.57286 8.91675 6.45791C8.91679 6.34297 8.93947 6.22916 8.98349 6.12298C9.02751 6.0168 9.09202 5.92033 9.17332 5.83907C9.25463 5.75782 9.35114 5.69338 9.45735 5.64943C9.56356 5.60548 9.67739 5.58288 9.79233 5.58291C10.0245 5.58299 10.2471 5.67528 10.4112 5.83949C10.5753 6.00369 10.6674 6.22636 10.6673 6.4585C10.6673 6.69064 10.575 6.91324 10.4108 7.07734C10.2466 7.24143 10.0239 7.33357 9.79175 7.3335Z" fill="#C3C3C3"/>
</svg>
