<svg width="66" height="98" viewBox="0 0 66 98" fill="none" xmlns="http://www.w3.org/2000/svg">
<path d="M32.9434 0.943359C50.6581 0.943359 65.0194 15.3039 65.0195 33.0186C65.0195 38.1887 63.7939 43.0724 61.6211 47.3975H61.7012L32.6475 97.1699L5.86133 50.2129C5.31047 49.3471 4.80045 48.4528 4.33301 47.5332L4.25586 47.3975H4.26562C2.09288 43.0724 0.868164 38.1886 0.868164 33.0186C0.868312 15.304 15.2288 0.943508 32.9434 0.943359Z" fill="#4C4648"/>
<circle cx="32.9437" cy="33.0185" r="27.6513" fill="white"/>
<path d="M24.0254 37.4383C19.9721 37.4301 17.2806 35.1277 17.2847 31.8986C17.2887 28.6695 19.9882 26.3711 24.0415 26.3793C28.0949 26.3875 30.7863 28.6899 30.7822 31.919C30.7782 35.1481 28.0787 37.4464 24.0254 37.4383ZM24.0456 23.0645C18.105 23.0563 14.1447 26.7304 14.1406 31.8945C14.1326 37.0586 18.0808 40.7449 24.0213 40.7531C29.9619 40.7613 33.9222 37.0913 33.9263 31.9231C33.9344 26.759 29.9861 23.0726 24.0456 23.0645Z" fill="#D29F66"/>
<path d="M37.8866 27.8895L35.9307 29.849L33.9788 27.8855L35.9347 25.93L37.8866 27.8895Z" fill="#D29F66"/>
<path d="M24.0254 37.4423C19.9721 37.4342 17.2806 35.1318 17.2847 31.9027C17.2887 28.6736 19.9882 26.3752 24.0415 26.3834C28.0949 26.3915 30.7863 28.694 30.7822 31.9231C30.7782 35.1522 28.0787 37.4505 24.0254 37.4423ZM24.0456 23.0645C18.105 23.0563 14.1447 26.7304 14.1406 31.8945C14.1326 37.0586 18.0808 40.7449 24.0213 40.7531C29.9619 40.7613 33.9222 37.0913 33.9263 31.9231C33.9344 26.759 29.9861 23.0726 24.0456 23.0645Z" fill="#D29F66"/>
<path d="M37.8866 27.8895L35.9307 29.849L33.9788 27.8855L35.9347 25.93L37.8866 27.8895Z" fill="#D29F66"/>
<path d="M38.4928 29.4533V26.4242L53.9585 26.4446C53.9585 26.4446 53.9584 28.5388 53.9544 29.5635C53.9544 31.1229 52.2329 32.5273 50.1355 33.4376C48.0421 34.352 44.2273 36.1768 43.8514 36.4422C43.4756 36.7116 42.1299 37.5158 41.9723 37.8383C43.6373 37.8383 53.9463 37.8547 53.9463 37.8547V40.7613L38.4767 40.7409C38.4767 40.7409 38.4767 38.9651 38.4807 37.4587C38.4807 35.9523 40.473 34.5684 41.7056 33.8703C42.9422 33.1723 49.8607 30.2493 50.6649 29.7635C51.4691 29.2818 52.346 28.5429 52.4511 28.2163L52.2369 28.0408C51.4165 28.7797 49.7112 29.4655 48.907 29.4655C48.1028 29.4655 38.4928 29.4492 38.4928 29.4492" fill="#D29F66"/>
<path d="M38.4928 29.4533V26.4242L53.9585 26.4446C53.9585 26.4446 53.9584 28.5388 53.9544 29.5635C53.9544 31.1229 52.2329 32.5273 50.1355 33.4376C48.0421 34.352 44.2273 36.1768 43.8514 36.4422C43.4756 36.7116 42.1299 37.5158 41.9723 37.8383C43.6373 37.8383 53.9463 37.8547 53.9463 37.8547V40.7613L38.4767 40.7409C38.4767 40.7409 38.4767 38.9651 38.4807 37.4587C38.4807 35.9523 40.473 34.5684 41.7056 33.8703C42.9422 33.1723 49.8607 30.2493 50.6649 29.7635C51.4691 29.2818 52.346 28.5429 52.4511 28.2163L52.2369 28.0408C51.4165 28.7797 49.7112 29.4655 48.907 29.4655C48.1028 29.4655 38.4928 29.4492 38.4928 29.4492" fill="#D29F66"/>
</svg>
