<svg width="1081" height="258" viewBox="0 0 1081 258" fill="none" xmlns="http://www.w3.org/2000/svg">
<g clip-path="url(#clip0_4613_493)">
<path d="M93.2306 0.269044C93.5326 0.448182 93.688 0.755593 93.8873 0.7874C97.4199 1.35096 101.014 1.64483 104.481 2.47515C109.343 3.63969 114.206 4.93552 118.894 6.65437C124.702 8.78427 130.147 11.7249 135.239 15.3058C139.562 18.3455 143.56 21.7537 147.082 25.6629C151.408 30.4628 154.999 35.8039 157.757 41.6663C160.4 47.283 162.422 53.1138 163.287 59.2826C163.762 62.6721 164.164 66.0841 164.344 69.4994C164.523 72.8987 164.633 76.3371 164.332 79.719C163.659 87.2668 162.018 94.6058 159.034 101.63C156.539 107.502 153.352 112.955 149.348 117.88C144.273 124.124 138.217 129.298 131.295 133.448C125.298 137.044 118.999 139.981 112.256 141.815C107.872 143.008 103.404 143.971 98.9176 144.682C94.9259 145.314 90.8586 145.482 86.8206 145.803C84.8747 145.958 82.9068 146.179 80.9708 146.047C76.0085 145.709 71.0526 145.246 66.1051 144.729C59.7766 144.067 53.7055 142.331 47.7261 140.199C40.8339 137.742 34.4498 134.383 28.503 130.108C24.7113 127.383 21.2161 124.348 18.0707 120.931C14.4624 117.012 11.4175 112.678 8.79299 108.014C5.40886 101.999 3.26511 95.56 1.69106 88.9025C1.23067 86.9553 1.09921 84.9309 0.79762 82.9448C0.764842 82.729 0.602931 82.5327 0.385003 82.3253C0.26909 76.2196 0.26909 70.116 0.384247 63.8843C0.781129 62.344 1.09752 60.9377 1.33846 59.5186C2.28286 53.9561 3.88528 48.6002 6.16635 43.434C9.16245 36.6485 13.1615 30.5156 18.1555 25.0565C21.5258 21.3723 25.34 18.1721 29.4384 15.2952C34.5284 11.7221 39.9339 8.71628 45.7694 6.63379C50.4306 4.9704 55.227 3.62575 60.0445 2.48064C63.5962 1.6364 67.2796 1.34789 70.8998 0.783178C71.0546 0.759023 71.1646 0.446977 71.2955 0.269043C78.5652 0.269043 85.8348 0.269043 93.2306 0.269044ZM36.463 100.353C37.9281 101.819 39.3569 103.323 40.8653 104.742C44.7784 108.424 49.4075 110.945 54.2879 113.111C61.5009 116.313 69.1133 117.864 76.8998 118.287C81.987 118.564 87.1247 118.108 92.2296 117.808C96.6271 117.548 100.881 116.459 105.089 115.158C111.924 113.046 118.17 109.807 123.582 105.16C128.212 101.185 131.976 96.451 134.487 90.8089C137.004 85.1527 138.274 79.2265 138.259 73.0485C138.254 71.0304 137.937 69.0123 137.747 66.9957C137.336 62.6303 136.023 58.5072 134.086 54.6143C131.612 49.6447 128.353 45.2654 124.109 41.5924C120.222 38.229 115.966 35.5422 111.305 33.421C103.345 29.7988 94.9026 28.2896 86.2675 27.7558C83.1233 27.5615 79.9393 27.7835 76.7873 28.0093C73.7305 28.2282 70.6783 28.6102 67.6474 29.0729C62.1413 29.9134 56.8916 31.6639 51.8948 34.0847C46.1918 36.8477 40.9409 40.3133 36.9285 45.3128C34.7831 47.986 32.5668 50.7123 31.0329 53.7437C27.6448 60.4396 26.1067 67.5987 26.5794 75.1946C26.815 78.9813 27.4174 82.644 28.5219 86.2464C30.1206 91.4605 32.7606 96.0974 36.463 100.353Z" fill="white"/>
<path d="M1081.27 145.957C1069.66 146.083 1058.05 146.072 1046.43 146.108C1045.58 146.11 1044.97 145.878 1044.5 145.216C1039.86 138.608 1035.21 132.001 1030.57 125.383C1025.37 117.949 1020.18 110.499 1014.97 103.064C1010.96 97.3362 1006.94 91.6114 1002.9 85.9034C998.255 79.3399 993.579 72.7968 988.917 66.2443C988.175 65.2019 987.437 64.1566 986.698 63.1127C986.587 63.1587 986.476 63.2047 986.365 63.2507C986.365 90.8178 986.365 118.385 986.365 146.018C976.782 146.018 967.347 146.018 957.846 146.018C957.846 106.709 957.846 67.4153 957.846 27.9792C958.325 27.9792 958.801 27.9792 959.278 27.9792C970.486 27.9792 981.694 28.008 992.902 27.9328C993.975 27.9256 994.534 28.3827 995.022 29.0653C996.891 31.6785 998.683 34.3457 1000.54 36.9673C1005.16 43.4936 1009.82 49.9975 1014.43 56.5275C1016.91 60.0374 1019.33 63.5938 1021.8 67.1093C1025.91 72.9372 1030.04 78.7419 1034.14 84.5695C1039.84 92.6679 1045.52 100.78 1051.22 108.88C1051.59 109.399 1052.04 109.859 1052.67 110.614C1052.67 82.891 1052.67 55.5051 1052.67 27.9792C1062.22 27.9792 1071.62 27.9792 1081.14 27.9792C1081.27 67.2632 1081.27 106.547 1081.27 145.957Z" fill="white"/>
<path d="M630.485 258.269C630.183 258.09 630.026 257.778 629.829 257.751C622.657 256.742 616.503 253.726 611.676 248.295C608.267 244.459 606.137 239.918 605.368 234.833C604.934 231.968 604.51 229.051 604.589 226.171C604.782 219.07 606.625 212.407 611.232 206.82C615.585 201.541 621.287 198.427 627.943 196.906C632.242 195.924 636.599 195.891 640.911 196.192C646.579 196.588 651.974 198.137 656.784 201.395C662.594 205.329 666.004 210.872 667.732 217.524C668.733 221.381 669.064 225.334 668.767 229.427C651.275 229.427 633.771 229.427 616.124 229.427C615.974 232.408 616.554 235.159 617.801 237.709C620.632 243.504 625.423 246.733 631.71 247.751C633.833 248.095 636.014 248.352 638.153 248.27C642.537 248.101 646.779 247.225 650.427 244.552C652.289 243.188 653.929 241.598 654.832 239.414C655.162 238.613 655.617 238.321 656.515 238.336C660.23 238.395 663.948 238.361 668.031 238.361C667.117 240.375 666.428 242.272 665.442 244C662.54 249.082 658.325 252.756 652.991 255.153C650.133 256.437 647.178 257.374 644.054 257.743C643.82 257.771 643.605 257.961 643.461 258.173C639.232 258.269 634.922 258.269 630.485 258.269ZM645.276 207.422C640.766 205.93 636.202 205.681 631.528 206.597C625.062 207.863 620.316 211.298 617.625 217.36C616.998 218.773 616.691 220.327 616.214 221.891C630.091 221.891 643.66 221.891 657.237 221.891C656.175 215.182 652.198 209.997 645.276 207.422Z" fill="white"/>
<path d="M459.376 258.269C459.074 258.09 458.916 257.776 458.72 257.751C453.824 257.121 449.235 255.654 445.347 252.522C442.518 250.243 440.652 247.227 439.643 243.751C439.052 241.716 438.718 239.606 438.216 237.285C440.14 237.285 441.734 237.285 443.328 237.285C445.301 237.285 447.273 237.296 449.246 237.278C449.898 237.273 450.276 237.362 450.399 238.182C450.939 241.781 452.756 244.586 455.908 246.461C459.058 248.334 462.509 249.061 466.141 249.128C470.778 249.213 475.375 248.98 479.739 247.227C482.675 246.048 485.152 244.44 485.382 240.775C485.533 238.363 484.281 235.862 481.967 235.169C479.077 234.302 476.127 233.601 473.168 233C466.024 231.549 458.711 230.916 451.737 228.662C448.172 227.51 444.782 225.922 442.936 222.391C442.151 220.89 441.438 219.2 441.298 217.545C440.978 213.728 441.137 209.905 442.952 206.354C445.176 202.001 448.894 199.511 453.367 198.03C457.247 196.745 461.248 196.034 465.358 196.127C468.385 196.196 471.43 196.119 474.433 196.431C480.151 197.027 485.537 198.683 489.743 202.853C492.481 205.568 493.946 208.976 494.233 212.859C494.3 213.773 494.46 214.68 494.59 215.684C491.024 215.684 487.592 215.684 484.257 215.684C483.668 214.167 483.185 212.611 482.478 211.166C481.014 208.172 478.219 206.942 475.236 206.091C471.341 204.98 467.316 205.073 463.355 205.341C460.363 205.543 457.418 206.199 454.733 207.907C450.845 210.381 451.064 216.558 455.385 218.563C458.157 219.849 461.088 220.294 464.008 220.855C467.557 221.538 471.133 222.077 474.695 222.692C477.353 223.15 480.038 223.501 482.654 224.134C486.154 224.981 489.52 226.129 492.281 228.692C494.565 230.812 495.604 233.438 496.09 236.361C496.607 239.475 496.431 242.593 495.445 245.593C494.111 249.65 491.341 252.543 487.593 254.474C484.016 256.317 480.198 257.403 476.176 257.744C475.943 257.764 475.724 257.959 475.58 258.171C470.275 258.269 464.889 258.269 459.376 258.269Z" fill="white"/>
<path d="M763.391 258.269C763.044 258.09 762.841 257.784 762.6 257.75C756.623 256.905 751.169 254.981 747.064 250.268C744.724 247.581 743.526 244.358 742.825 240.924C742.59 239.773 742.444 238.604 742.243 237.361C746.18 237.361 750.061 237.361 753.7 237.361C754.574 239.333 755.218 241.363 756.311 243.113C757.887 245.635 760.365 247.129 763.188 248.051C767.004 249.297 770.949 249.311 774.863 249.075C778.589 248.849 782.26 248.187 785.618 246.308C789.06 244.381 790.398 240.544 788.557 237.347C787.517 235.54 785.688 234.757 783.83 234.369C778.938 233.347 773.987 232.611 769.09 231.611C764.341 230.642 759.584 229.653 754.917 228.36C751.012 227.278 747.764 225.033 746.183 221.098C745.155 218.539 744.825 215.849 745.174 213.028C745.423 211.019 745.774 209.114 746.544 207.23C747.736 204.314 749.72 202.115 752.292 200.438C756.235 197.867 760.647 196.654 765.31 196.411C768.914 196.224 772.541 195.972 776.132 196.18C781.273 196.479 786.307 197.532 790.696 200.448C794.563 203.017 797.137 206.568 797.951 211.219C798.201 212.648 798.225 214.115 798.361 215.669C794.752 215.669 791.288 215.669 787.826 215.669C787.432 210.508 784.115 207.392 779.18 206.07C775.217 205.008 771.161 205.07 767.159 205.346C763.908 205.57 760.717 206.274 757.934 208.434C755.317 210.465 755.458 216.019 757.99 217.747C760.546 219.49 763.409 219.979 766.262 220.573C769.883 221.327 773.554 221.836 777.197 222.483C780.62 223.091 784.067 223.609 787.446 224.408C790.886 225.221 794.172 226.486 796.703 229.153C798.564 231.114 799.557 233.426 799.887 236.123C800.272 239.263 800.379 242.367 799.4 245.403C797.823 250.292 794.362 253.394 789.723 255.308C786.578 256.605 783.337 257.529 779.921 257.754C779.779 257.764 779.649 257.962 779.595 258.171C774.29 258.269 768.903 258.269 763.391 258.269Z" fill="white"/>
<path d="M697.745 258.269C697.398 258.09 697.196 257.784 696.954 257.75C690.977 256.905 685.519 254.983 681.419 250.265C679.084 247.578 677.9 244.345 677.183 240.92C676.942 239.772 676.827 238.597 676.643 237.359C680.539 237.359 684.419 237.359 688.19 237.359C688.825 239.001 689.296 240.714 690.118 242.238C691.899 245.542 694.892 247.368 698.429 248.293C702.314 249.308 706.275 249.454 710.24 248.847C712.639 248.479 715.095 248.203 717.378 247.444C720.103 246.538 722.664 245.238 723.507 241.983C724.206 239.284 723.157 236.338 720.787 235.45C718.336 234.531 715.78 233.842 713.219 233.284C710.455 232.681 707.628 232.371 704.837 231.888C701.924 231.383 699.003 230.904 696.117 230.271C692.068 229.383 688.004 228.507 684.534 226.002C681.464 223.786 680.01 220.777 679.545 217.056C679.187 214.195 679.479 211.433 680.307 208.771C681.869 203.746 685.402 200.478 690.228 198.546C694.803 196.715 699.578 196.1 704.482 196.103C708.775 196.106 713.048 196.145 717.248 197.194C721.218 198.186 724.966 199.721 727.861 202.65C731.37 206.199 732.893 210.613 732.559 215.761C729.3 215.761 726.086 215.778 722.874 215.731C722.613 215.727 722.165 215.309 722.131 215.042C721.499 209.991 718.221 207.409 713.696 206.102C709.678 204.942 705.51 205.079 701.412 205.337C698.18 205.541 695.067 206.387 692.308 208.435C689.612 210.435 689.802 216.141 692.444 217.822C694.994 219.445 697.79 220.002 700.607 220.577C704.231 221.316 707.9 221.836 711.544 222.482C714.967 223.09 718.415 223.608 721.794 224.408C725.233 225.222 728.523 226.48 731.053 229.149C732.914 231.111 733.911 233.42 734.242 236.119C734.626 239.259 734.742 242.367 733.754 245.4C732.167 250.273 728.745 253.414 724.08 255.311C720.928 256.592 717.692 257.53 714.276 257.755C714.133 257.764 714.004 257.962 713.949 258.171C708.644 258.269 703.258 258.269 697.745 258.269Z" fill="white"/>
<path d="M386.197 258.269C385.896 258.09 385.741 257.782 385.541 257.75C377.743 256.508 372.612 251.733 370.728 244.257C369.926 241.077 369.652 237.854 369.656 234.588C369.667 222.844 369.66 211.1 369.66 199.357C369.66 198.869 369.66 198.381 369.66 197.816C373.231 197.816 376.748 197.816 380.422 197.816C380.422 198.265 380.422 198.74 380.422 199.214C380.422 210.554 380.337 221.896 380.482 233.234C380.518 235.987 381.086 238.789 381.804 241.463C383.022 245.992 386.272 248.236 390.862 248.88C395.684 249.557 400.341 249.048 404.678 246.924C410.361 244.141 413.969 239.534 415.368 233.328C415.732 231.714 415.902 230.024 415.911 228.368C415.96 218.641 415.935 208.914 415.935 199.188C415.935 198.748 415.935 198.309 415.935 197.804C419.531 197.804 423.047 197.804 426.63 197.804C426.63 217.382 426.63 236.946 426.63 256.583C423.112 256.583 419.596 256.583 415.935 256.583C415.935 253.581 415.935 250.572 415.935 247.563C415.841 247.524 415.747 247.485 415.653 247.446C415.317 247.851 415.001 248.276 414.641 248.658C410.734 252.8 406.112 255.79 400.599 257.334C399.653 257.599 398.699 257.832 397.829 258.174C394.047 258.269 390.185 258.269 386.197 258.269Z" fill="white"/>
<path d="M514.11 146.083C505.109 146.083 496.24 146.083 487.228 146.083C487.228 120.136 487.228 94.2612 487.228 68.3866C487.125 68.3561 487.021 68.3257 486.918 68.2952C486.263 69.6479 485.589 70.9922 484.955 72.3551C483.463 75.5657 481.993 78.7868 480.509 82.0008C477.069 89.4464 473.627 96.8912 470.183 104.335C468.08 108.881 465.963 113.42 463.867 117.969C460.598 125.064 457.342 132.166 454.08 139.265C453.161 141.264 452.28 143.282 451.287 145.244C451.089 145.636 450.462 146.046 450.031 146.048C442.141 146.096 434.251 146.083 426.322 146.083C414.902 119.89 403.488 93.708 392.073 67.5263C392.005 67.5312 391.938 67.5361 391.87 67.541C391.87 93.6557 391.87 119.77 391.87 145.984C382.271 145.984 372.835 145.984 363.302 145.984C363.302 106.74 363.302 67.4122 363.302 28.0319C375.984 28.0319 388.657 28.0319 401.334 28.0319C404.454 34.9215 407.58 41.7989 410.683 48.6872C412.898 53.6045 415.073 58.5395 417.278 63.4611C420.824 71.3731 424.38 79.2801 427.93 87.1902C430.209 92.2686 432.493 97.3445 434.757 102.43C436.125 105.502 437.457 108.59 438.812 111.668C438.856 111.77 438.962 111.844 439.098 111.997C440.349 109.374 441.59 106.832 442.777 104.264C444.045 101.524 445.252 98.7551 446.501 96.0061C449.787 88.7773 453.065 81.5454 456.378 74.3291C458.197 70.3647 460.105 66.4409 461.929 62.4784C465.357 55.0302 468.75 47.566 472.163 40.111C474.009 36.0784 475.867 32.0512 477.719 28.0207C490.351 28.0199 502.984 28.0199 515.682 28.0199C515.682 67.3563 515.682 106.652 515.682 146.083C515.196 146.083 514.719 146.083 514.11 146.083Z" fill="white"/>
<path d="M323.116 121.871C325.666 121.871 328.081 121.871 330.572 121.871C330.572 129.93 330.572 137.929 330.572 145.9C287.781 145.9 244.972 145.9 202.048 145.9C202.048 145.238 202.048 144.758 202.048 144.278C202.048 136.209 202.08 128.139 202.037 120.069C202.01 114.861 203.93 110.449 207.11 106.421C212.363 99.7672 219.008 94.7712 226.312 90.7318C232.65 87.2267 239.295 84.2673 245.855 81.1734C250.887 78.7998 255.984 76.56 261.078 74.319C267.352 71.5588 273.66 68.8752 279.939 66.1267C283.258 64.6736 286.555 63.1672 289.85 61.6592C293.776 59.8626 297.831 58.2872 301.568 56.1562C305.325 54.0137 308.85 51.4248 312.3 48.7994C314.216 47.3411 315.778 45.4156 317.482 43.6822C317.717 43.443 317.844 43.0973 318.025 42.7937C317.488 42.3257 316.972 41.8763 316.406 41.383C312.982 44.478 308.956 46.6066 304.827 48.541C300.39 50.6195 295.754 52.1227 290.923 52.9921C290.706 53.0312 290.476 52.9989 290.252 52.9989C261.244 52.9989 232.237 52.9989 203.23 52.9989C202.97 52.9989 202.71 52.9989 202.384 52.9989C202.384 44.5598 202.384 36.2013 202.384 27.8567C245.175 27.8567 287.952 27.8567 330.825 27.8567C330.863 28.3318 330.914 28.6695 330.915 29.0073C330.92 33.3559 330.953 37.705 330.909 42.0533C330.861 46.6945 330.862 51.3418 330.605 55.9732C330.442 58.8961 329.265 61.6024 327.741 64.095C323.799 70.5434 318.084 75.1059 311.809 79.1174C304.96 83.496 297.422 86.411 290.057 89.7069C286.274 91.3998 282.527 93.175 278.79 94.968C268.733 99.7932 258.606 104.484 248.681 109.567C244.386 111.767 240.485 114.753 236.473 117.481C234.674 118.704 233.042 120.173 231.334 121.531C231.382 121.644 231.431 121.757 231.479 121.871C261.98 121.871 292.481 121.871 323.116 121.871Z" fill="white"/>
<path d="M937.871 91.2057C937.555 97.8143 936.305 104.098 934.064 110.194C932.06 115.646 929.373 120.758 925.663 125.183C922.916 128.46 919.672 131.343 916.495 134.23C913.032 137.375 908.959 139.659 904.749 141.647C898.984 144.369 892.963 146.373 886.661 147.408C883.209 147.975 879.729 148.401 876.247 148.751C873.343 149.043 870.407 149.392 867.506 149.255C862.408 149.013 857.319 148.482 852.239 147.955C846.125 147.32 840.243 145.624 834.577 143.34C828.941 141.069 823.548 138.248 818.872 134.275C816.746 132.468 814.656 130.603 812.695 128.62C809.673 125.565 807.183 122.093 805.061 118.346C802.966 114.645 801.174 110.818 800.131 106.693C799.304 103.421 798.486 100.123 798.023 96.7866C797.52 93.1648 797.136 89.4782 797.224 85.8326C797.425 77.51 798.772 69.366 802.109 61.6483C804.292 56.5978 807.069 51.9342 810.624 47.7024C815.157 42.306 820.501 37.9493 826.605 34.469C832.427 31.1497 838.651 28.8468 845.137 27.2998C848.518 26.4933 851.986 25.9295 855.447 25.6046C860.295 25.1496 865.178 24.7488 870.037 24.8299C874.549 24.9052 879.053 25.615 883.555 26.0964C889.543 26.7367 895.252 28.4853 900.822 30.6841C906.244 32.8246 911.337 35.5894 915.906 39.2474C917.551 40.5646 919.249 41.8399 920.748 43.3119C927.557 49.9965 932.357 57.9289 935.172 67.0479C936.432 71.1319 937.325 75.2938 937.603 79.572C937.78 82.3076 938.006 85.0413 938.118 87.7796C938.163 88.8732 937.961 89.9769 937.871 91.2057ZM832.263 102.224C832.91 103.682 833.498 105.17 834.214 106.593C837.285 112.692 841.93 117.209 847.97 120.381C853.778 123.432 860.04 124.537 866.473 124.781C869.331 124.89 872.243 124.681 875.073 124.241C879.782 123.508 884.328 122.199 888.527 119.775C892.029 117.754 895.157 115.309 897.637 112.157C902.364 106.147 904.752 99.1363 905.252 91.6049C905.706 84.7398 905.39 77.8743 902.902 71.2894C900.473 64.8614 896.652 59.5533 890.926 55.6479C884.73 51.422 877.745 49.7315 870.418 49.2716C866.669 49.0363 862.924 49.3418 859.184 49.9915C853.586 50.9642 848.48 52.9144 843.801 56.179C839.333 59.2971 836.074 63.3726 833.771 68.2011C830.654 74.7344 829.64 81.6719 829.924 88.9069C830.101 93.4153 830.909 97.7443 832.263 102.224Z" fill="white"/>
<path d="M756.062 96.7769C758.596 99.8734 761.076 102.888 763.523 105.928C765.882 108.858 768.205 111.817 770.548 114.759C773.328 118.25 776.105 121.745 778.901 125.223C780.906 127.719 782.953 130.181 784.96 132.676C787.813 136.223 790.642 139.79 793.493 143.339C794.172 144.184 794.898 144.992 795.751 145.991C795.198 146.034 794.871 146.08 794.543 146.08C783.154 146.084 771.766 146.045 760.378 146.131C758.937 146.142 758.584 145.137 757.99 144.394C754.474 139.989 751.056 135.507 747.567 131.081C744.694 127.436 741.748 123.848 738.874 120.204C735.765 116.26 732.718 112.267 729.614 108.318C727.098 105.116 724.532 101.953 722 98.7644C720.287 96.6077 718.592 94.4358 716.78 92.1315C715.41 93.3016 714.062 94.4029 712.77 95.5667C709.708 98.3249 706.786 101.254 703.577 103.826C702.091 105.016 701.892 106.241 701.898 107.901C701.945 120.096 701.924 132.291 701.924 144.486C701.924 144.973 701.924 145.459 701.924 146.013C692.058 146.013 682.264 146.013 672.399 146.013C672.399 106.714 672.399 67.4187 672.399 28.051C682.192 28.051 691.986 28.051 701.873 28.051C701.873 42.871 701.873 57.6928 701.873 72.8153C702.442 72.482 702.876 72.3199 703.191 72.0295C705.838 69.5922 708.455 67.1224 711.096 64.6796C715.69 60.4322 720.29 56.1917 724.897 51.9589C727.964 49.1404 731.053 46.3445 734.125 43.5306C738.507 39.5167 742.881 35.4938 747.265 31.4821C747.552 31.2198 747.992 31.086 748.198 30.7818C749.967 28.1668 752.488 27.8834 755.424 27.9222C766.273 28.0654 777.125 27.9791 787.975 27.9791C788.398 27.9791 788.822 27.9791 789.396 27.9791C786.137 30.9033 783.036 33.7016 779.918 36.4797C775.959 40.0062 771.987 43.5183 768.018 47.0328C764.942 49.7553 761.858 52.4676 758.785 55.1922C754.75 58.7686 750.733 62.3642 746.689 65.9294C743.71 68.5557 740.7 71.1466 737.643 73.8054C738.993 75.5186 740.277 77.1638 741.578 78.7946C744.445 82.3879 747.309 85.9829 750.197 89.5593C751.879 91.6421 753.606 93.6884 755.306 95.7564C755.554 96.0578 755.766 96.3888 756.062 96.7769Z" fill="white"/>
<path d="M615.025 40.6405C617.27 45.6084 619.523 50.4638 621.738 55.3359C625.291 63.1516 628.822 70.9777 632.36 78.8005C634.476 83.48 636.583 88.1638 638.703 92.8415C641.784 99.6401 644.873 106.436 647.961 113.231C650.139 118.025 652.322 122.816 654.502 127.609C657.199 133.54 659.896 139.471 662.585 145.405C662.653 145.556 662.625 145.75 662.651 146.019C662.228 146.042 661.846 146.081 661.464 146.081C651.33 146.084 641.197 146.074 631.063 146.1C630.167 146.102 629.727 145.908 629.343 144.975C626.139 137.205 622.837 129.476 619.583 121.727C619.265 120.969 618.685 121.06 618.073 121.06C603.455 121.065 588.838 121.064 574.22 121.064C572.337 121.064 570.45 121.004 568.573 121.105C568.098 121.131 567.41 121.57 567.229 121.994C564.349 128.731 561.535 135.496 558.708 142.256C558.177 143.526 557.654 144.799 557.132 146.06C546.465 146.06 535.885 146.06 525.146 146.06C526.752 142.695 528.341 139.393 529.907 136.08C533.028 129.48 536.139 122.875 539.251 116.27C541.406 111.698 543.555 107.123 545.71 102.55C548.749 96.1021 551.791 89.6553 554.831 83.2075C556.913 78.7923 558.994 74.3766 561.074 69.9609C564.187 63.3557 567.295 56.7486 570.412 50.1453C572.514 45.6912 574.638 41.2473 576.731 36.7889C577.96 34.1704 579.112 31.5149 580.388 28.9202C580.6 28.4902 581.271 28.0211 581.733 28.0185C590.79 27.9661 599.848 27.98 608.905 27.9829C609.038 27.9829 609.17 28.0158 609.231 28.024C611.173 32.2231 613.094 36.3794 615.025 40.6405ZM594.317 64.3885C593.901 63.3678 593.485 62.3471 592.935 60.9966C587.83 73.0959 582.844 84.9143 577.829 96.7998C588.088 96.7998 598.16 96.7998 608.339 96.7998C607.9 95.7781 607.5 94.8345 607.089 93.8956C605.257 89.7071 603.4 85.5289 601.592 81.3303C599.188 75.7494 596.82 70.1529 594.317 64.3885Z" fill="white"/>
<path d="M333.262 256.655C317.367 256.655 301.6 256.655 285.777 256.655C285.777 230.177 285.777 203.8 285.777 177.291C286.234 177.291 286.667 177.291 287.1 177.291C301.533 177.291 315.967 177.214 330.4 177.333C335.332 177.374 340.217 178.089 344.667 180.52C349.915 183.387 352.968 187.75 353.799 193.693C354.262 197.004 354.25 200.27 353.245 203.483C351.91 207.757 349.222 210.93 345.318 213.094C344.234 213.695 343.148 214.294 342.116 214.865C348.572 216.32 353.538 219.708 355.778 226.269C356.332 227.895 356.629 229.666 356.707 231.386C356.885 235.304 356.759 239.198 355.427 242.989C353.462 248.585 349.659 252.25 344.178 254.324C341.062 255.503 337.857 256.201 334.534 256.395C334.149 256.418 333.771 256.565 333.262 256.655ZM315.987 221.143C309.775 221.143 303.562 221.143 297.362 221.143C297.362 229.561 297.362 237.828 297.362 245.894C308.343 245.894 319.25 245.9 330.158 245.89C333.062 245.888 335.872 245.387 338.579 244.289C341.29 243.189 343.338 241.47 344.264 238.604C345.051 236.165 345.053 233.705 344.658 231.187C344.036 227.22 341.885 224.283 337.998 222.752C334.853 221.514 331.552 221.203 328.223 221.156C324.235 221.1 320.245 221.143 315.987 221.143ZM297.288 189.821C297.288 196.747 297.288 203.672 297.288 210.596C297.576 210.624 297.706 210.649 297.835 210.648C308.432 210.561 319.031 210.548 329.626 210.323C332.018 210.272 334.448 209.666 336.761 208.979C338.81 208.369 340.394 206.906 341.41 204.96C342.845 202.21 342.914 199.252 342.412 196.303C342.085 194.378 341.35 192.486 339.799 191.187C337.122 188.944 333.854 188.111 330.466 188.083C319.802 187.998 309.138 188.051 298.474 188.055C298.09 188.055 297.706 188.095 297.288 188.118C297.288 188.67 297.288 189.114 297.288 189.821Z" fill="white"/>
<path d="M559.547 206.796C553.028 209.477 549.083 214.266 547.363 220.912C546.95 222.509 546.727 224.2 546.717 225.849C546.658 235.621 546.688 245.394 546.688 255.167C546.688 255.61 546.688 256.053 546.688 256.575C543.119 256.575 539.602 256.575 536.006 256.575C536.006 237.034 536.006 217.469 536.006 197.82C539.489 197.82 543.006 197.82 546.664 197.82C546.664 200.883 546.664 203.985 546.664 207.087C546.777 207.144 546.89 207.2 547.003 207.257C547.448 206.718 547.865 206.154 548.342 205.645C552.377 201.345 557.228 198.437 562.945 196.909C566.742 195.895 570.613 195.903 574.431 196.192C579.32 196.561 583.906 198.063 587.436 201.77C589.807 204.26 591.092 207.349 591.859 210.62C592.955 215.296 593 220.076 592.978 224.861C592.929 235.394 592.963 245.928 592.963 256.559C589.428 256.559 585.91 256.559 582.201 256.559C582.201 256.166 582.201 255.696 582.201 255.227C582.201 243.975 582.241 232.723 582.176 221.471C582.158 218.24 581.798 214.991 580.552 211.976C579.027 208.285 576.168 206.152 572.199 205.538C567.906 204.874 563.714 205.25 559.547 206.796Z" fill="white"/>
<path d="M519.515 247.508C519.515 250.595 519.515 253.548 519.515 256.578C515.94 256.578 512.423 256.578 508.829 256.578C508.829 237.026 508.829 217.459 508.829 197.814C512.329 197.814 515.845 197.814 519.515 197.814C519.515 214.323 519.515 230.848 519.515 247.508Z" fill="white"/>
<path d="M168.889 44.1882C167.683 42.9806 166.569 41.8139 165.394 40.7109C164.791 40.1438 164.823 39.7576 165.402 39.185C169 35.6272 172.549 32.0199 176.153 28.4682C177.8 26.8444 179.536 25.3099 181.222 23.744C186.614 29.1384 192.026 34.5528 197.319 39.8477C191.891 45.2756 186.451 50.715 180.933 56.2332C176.983 52.2827 172.97 48.2691 168.889 44.1882Z" fill="white"/>
<path d="M508.859 190.365C508.769 185.98 508.769 181.689 508.769 177.345C512.377 177.345 515.893 177.345 519.46 177.345C519.46 181.723 519.46 186.046 519.46 190.458C515.921 190.458 512.435 190.458 508.859 190.365Z" fill="white"/>
</g>
<defs>
<clipPath id="clip0_4613_493">
<rect width="1081" height="258" fill="white"/>
</clipPath>
</defs>
</svg>
